<svg xmlns="http://www.w3.org/2000/svg" width="24" height="25" viewBox="0 0 24 25" fill="none">
  <g clip-path="url(#clip0_260_15130)">
    <path d="M16.0938 13C16.0938 13.9531 15.7151 14.8672 15.0412 15.5412C14.3672 16.2151 13.4531 16.5938 12.5 16.5938C11.5469 16.5938 10.6328 16.2151 9.95883 15.5412C9.28488 14.8672 8.90625 13.9531 8.90625 13C8.90625 12.7952 8.92781 12.5951 8.96495 12.401H7.70833V17.1891C7.70833 17.5221 7.97786 17.7917 8.31088 17.7917H16.6903C16.8499 17.7913 17.0029 17.7277 17.1156 17.6148C17.2283 17.5018 17.2917 17.3487 17.2917 17.1891V12.401H16.0351C16.0722 12.5951 16.0938 12.7952 16.0938 13ZM12.5 15.3958C12.8147 15.3958 13.1263 15.3337 13.417 15.2132C13.7077 15.0927 13.9719 14.9161 14.1944 14.6935C14.4168 14.4709 14.5933 14.2067 14.7136 13.9159C14.834 13.6251 14.8959 13.3135 14.8958 12.9988C14.8958 12.6841 14.8337 12.3725 14.7132 12.0818C14.5927 11.7911 14.4161 11.5269 14.1935 11.3044C13.9709 11.082 13.7067 10.9055 13.4159 10.7852C13.1251 10.6648 12.8135 10.6029 12.4988 10.603C11.8632 10.6031 11.2537 10.8558 10.8044 11.3053C10.3551 11.7548 10.1028 12.3644 10.103 13C10.1031 13.6356 10.3558 14.2451 10.8053 14.6944C11.2548 15.1437 11.8644 15.396 12.5 15.3958ZM15.375 10.4844H16.8113C16.9067 10.4844 16.9983 10.4466 17.0658 10.3792C17.1334 10.3118 17.1716 10.2204 17.1719 10.125V8.6887C17.1719 8.59307 17.1339 8.50135 17.0663 8.43373C16.9986 8.36611 16.9069 8.32812 16.8113 8.32812H15.375C15.2794 8.32812 15.1877 8.36611 15.12 8.43373C15.0524 8.50135 15.0144 8.59307 15.0144 8.6887V10.125C15.0156 10.3227 15.1773 10.4844 15.375 10.4844ZM12.5 1.5C9.45001 1.5 6.52494 2.7116 4.36827 4.86827C2.2116 7.02494 1 9.95001 1 13C1 16.05 2.2116 18.9751 4.36827 21.1317C6.52494 23.2884 9.45001 24.5 12.5 24.5C14.0102 24.5 15.5056 24.2025 16.9009 23.6246C18.2961 23.0467 19.5639 22.1996 20.6317 21.1317C21.6996 20.0639 22.5467 18.7961 23.1246 17.4009C23.7025 16.0056 24 14.5102 24 13C24 11.4898 23.7025 9.99438 23.1246 8.59914C22.5467 7.2039 21.6996 5.93615 20.6317 4.86827C19.5639 3.8004 18.2961 2.95331 16.9009 2.37539C15.5056 1.79746 14.0102 1.5 12.5 1.5ZM18.4896 17.6587C18.4896 18.3906 17.8906 18.9896 17.1587 18.9896H7.8413C7.10937 18.9896 6.51042 18.3906 6.51042 17.6587V8.3413C6.51042 7.60937 7.10937 7.01042 7.8413 7.01042H17.1587C17.8906 7.01042 18.4896 7.60937 18.4896 8.3413V17.6587Z" fill="#341D00"/>
  </g>
  <defs>
    <clipPath id="clip0_260_15130">
      <rect width="24" height="24" fill="white" transform="translate(0 0.5)"/>
    </clipPath>
  </defs>
</svg>