<svg xmlns="http://www.w3.org/2000/svg" width="24" height="25" viewBox="0 0 24 25" fill="none">
  <g clip-path="url(#clip0_260_15126)">
    <path d="M12.5 1.5C6.14865 1.5 1 6.64865 1 13C1 19.3514 6.14865 24.5 12.5 24.5C18.8514 24.5 24 19.3514 24 13C24 6.64865 18.8514 1.5 12.5 1.5ZM9.6849 17.7665H7.35615V10.2723H9.6849V17.7665ZM8.50615 9.35234C7.77062 9.35234 7.29505 8.83125 7.29505 8.18677C7.29505 7.52911 7.785 7.02359 8.53609 7.02359C9.28719 7.02359 9.74719 7.52911 9.76156 8.18677C9.76156 8.83125 9.28719 9.35234 8.50615 9.35234ZM18.1901 17.7665H15.8614V13.6133C15.8614 12.6466 15.5235 11.9902 14.6814 11.9902C14.0381 11.9902 13.656 12.4346 13.4871 12.8622C13.4248 13.0144 13.4092 13.23 13.4092 13.4444V17.7653H11.0793V12.6622C11.0793 11.7266 11.0493 10.9444 11.0182 10.2711H13.0415L13.1481 11.3121H13.1948C13.5015 10.8234 14.2526 10.1022 15.5092 10.1022C17.0413 10.1022 18.1901 11.1289 18.1901 13.3354V17.7665Z" fill="#341D00"/>
  </g>
  <defs>
    <clipPath id="clip0_260_15126">
      <rect width="24" height="24" fill="white" transform="translate(0 0.5)"/>
    </clipPath>
  </defs>
</svg>