<svg xmlns="http://www.w3.org/2000/svg" width="17" height="16" viewBox="0 0 17 16" fill="none">
  <g clip-path="url(#clip0_102_21947)">
    <path d="M4.23353 8.53322H3.7002V7.46655H4.23353C4.37498 7.46655 4.51063 7.52274 4.61065 7.62276C4.71067 7.72278 4.76686 7.85844 4.76686 7.99989C4.76686 8.14133 4.71067 8.27699 4.61065 8.37701C4.51063 8.47703 4.37498 8.53322 4.23353 8.53322ZM7.96686 10.6666V7.46655H8.5002C8.64164 7.46655 8.7773 7.52274 8.87732 7.62276C8.97734 7.72278 9.03353 7.85844 9.03353 7.99989V10.1332C9.03353 10.2747 8.97734 10.4103 8.87732 10.5103C8.7773 10.6104 8.64164 10.6666 8.5002 10.6666H7.96686Z" fill="url(#paint0_linear_102_21947)"/>
    <path fill-rule="evenodd" clip-rule="evenodd" d="M1.56689 1.6C1.56689 1.17565 1.73547 0.768687 2.03552 0.468629C2.33558 0.168571 2.74255 0 3.16689 0L11.921 0L15.4336 3.51253V14.4C15.4336 14.8243 15.265 15.2313 14.9649 15.5314C14.6649 15.8314 14.2579 16 13.8336 16H3.16689C2.74255 16 2.33558 15.8314 2.03552 15.5314C1.73547 15.2313 1.56689 14.8243 1.56689 14.4V1.6ZM4.23356 6.4H2.63356V11.7333H3.70023V9.6H4.23356C4.65791 9.6 5.06487 9.43143 5.36493 9.13137C5.66499 8.83131 5.83356 8.42435 5.83356 8C5.83356 7.57565 5.66499 7.16869 5.36493 6.86863C5.06487 6.56857 4.65791 6.4 4.23356 6.4ZM8.50023 6.4H6.90023V11.7333H8.50023C8.92457 11.7333 9.33154 11.5648 9.6316 11.2647C9.93166 10.9646 10.1002 10.5577 10.1002 10.1333V8C10.1002 7.57565 9.93166 7.16869 9.6316 6.86863C9.33154 6.56857 8.92457 6.4 8.50023 6.4ZM11.1669 11.7333V6.4H14.3669V7.46667H12.2336V8.53333H13.3002V9.6H12.2336V11.7333H11.1669Z" fill="url(#paint1_linear_102_21947)"/>
  </g>
  <defs>
    <linearGradient id="paint0_linear_102_21947" x1="6.21227" y1="8.17766" x2="8.56448" y2="10.2781" gradientUnits="userSpaceOnUse">
      <stop stop-color="#FF7042"/>
      <stop offset="0.947917" stop-color="#FF3D00"/>
    </linearGradient>
    <linearGradient id="paint1_linear_102_21947" x1="8.0983" y1="3.55555" x2="17.1409" y2="7.75441" gradientUnits="userSpaceOnUse">
      <stop stop-color="#FF7042"/>
      <stop offset="0.947917" stop-color="#FF3D00"/>
    </linearGradient>
    <clipPath id="clip0_102_21947">
      <rect width="16" height="16" fill="white" transform="translate(0.5)"/>
    </clipPath>
  </defs>
</svg>