<svg xmlns="http://www.w3.org/2000/svg" width="24" height="25" viewBox="0 0 24 25" fill="none">
  <g clip-path="url(#clip0_260_15124)">
    <path d="M12.5 1.5C6.14865 1.5 1 6.64865 1 13C1 19.3514 6.14865 24.5 12.5 24.5C18.8514 24.5 24 19.3514 24 13C24 6.64865 18.8514 1.5 12.5 1.5ZM17.1779 10.9204C17.1827 11.0186 17.1839 11.1169 17.1839 11.2127C17.1839 14.2075 14.9066 17.6587 10.7403 17.6587C9.50916 17.6607 8.30366 17.3072 7.2687 16.6405C7.44479 16.662 7.62568 16.6704 7.80896 16.6704C8.87031 16.6704 9.84661 16.3098 10.6217 15.7013C10.1493 15.692 9.69169 15.5356 9.31248 15.2539C8.93326 14.9722 8.65139 14.5792 8.50615 14.1296C8.84534 14.1941 9.19477 14.1806 9.52797 14.0901C9.01532 13.9864 8.5543 13.7087 8.22309 13.3039C7.89188 12.8991 7.71086 12.3922 7.71073 11.8692V11.8416C8.0162 12.0105 8.36599 12.1135 8.73734 12.1255C8.25674 11.8056 7.91651 11.3141 7.78625 10.7517C7.65599 10.1892 7.74553 9.59822 8.03656 9.09958C8.60552 9.79917 9.31505 10.3715 10.1192 10.7794C10.9234 11.1874 11.8043 11.4219 12.7048 11.4679C12.5904 10.9819 12.6396 10.4717 12.845 10.0166C13.0504 9.5615 13.4004 9.18702 13.8406 8.95136C14.2807 8.7157 14.7864 8.63206 15.279 8.71346C15.7716 8.79486 16.2236 9.03672 16.5645 9.40146C17.0715 9.30116 17.5576 9.11522 18.002 8.85161C17.8331 9.37646 17.4793 9.82214 17.0066 10.1058C17.4556 10.0517 17.8941 9.93103 18.3075 9.74766C18.0038 10.2027 17.6213 10.5999 17.1779 10.9204Z" fill="#341D00"/>
  </g>
  <defs>
    <clipPath id="clip0_260_15124">
      <rect width="24" height="24" fill="white" transform="translate(0 0.5)"/>
    </clipPath>
  </defs>
</svg>