<svg xmlns="http://www.w3.org/2000/svg" width="24" height="25" viewBox="0 0 24 25" fill="none">
  <path d="M10.2 16L16.1685 12.55L10.2 9.1V16ZM23.494 6.9955C23.6435 7.536 23.747 8.2605 23.816 9.1805C23.8965 10.1005 23.931 10.894 23.931 11.584L24 12.55C24 15.0685 23.816 16.92 23.494 18.1045C23.2065 19.1395 22.5395 19.8065 21.5045 20.094C20.964 20.2435 19.975 20.347 18.457 20.416C16.962 20.4965 15.5935 20.531 14.3285 20.531L12.5 20.6C7.6815 20.6 4.68 20.416 3.4955 20.094C2.4605 19.8065 1.7935 19.1395 1.506 18.1045C1.3565 17.564 1.253 16.8395 1.184 15.9195C1.1035 14.9995 1.069 14.206 1.069 13.516L1 12.55C1 10.0315 1.184 8.18 1.506 6.9955C1.7935 5.9605 2.4605 5.2935 3.4955 5.006C4.036 4.8565 5.025 4.753 6.543 4.684C8.038 4.6035 9.4065 4.569 10.6715 4.569L12.5 4.5C17.3185 4.5 20.32 4.684 21.5045 5.006C22.5395 5.2935 23.2065 5.9605 23.494 6.9955Z" fill="#341D00"/>
</svg>